<?xml version="1.0" encoding="utf-8"?>
<!-- Generator: Adobe Illustrator 24.0.2, SVG Export Plug-In . SVG Version: 6.00 Build 0)  -->
<svg version="1.1" id="Layer_1" xmlns="http://www.w3.org/2000/svg" xmlns:xlink="http://www.w3.org/1999/xlink" x="0px" y="0px"
	 viewBox="0 0 68.11 68.11" style="enable-background:new 0 0 68.11 68.11;" xml:space="preserve">
<style>path{fill:#fff}</style>
<g>
	<path d="M50.11,38.48h-0.55v-4.43c0-1.1-0.65-2.09-1.66-2.53v-6.88c0-1.1-0.65-2.09-1.66-2.53v-0.79c0-0.92-0.74-1.66-1.66-1.66
		c-0.92,0-1.66,0.74-1.66,1.66v0.55H25.2v-0.55c0-0.92-0.74-1.66-1.66-1.66c-0.92,0-1.66,0.74-1.66,1.66v0.79
		c-1.01,0.44-1.66,1.43-1.66,2.53v6.88c-1.01,0.44-1.66,1.43-1.66,2.53v4.43h-0.55c-0.31,0-0.55,0.25-0.55,0.55v7.75
		c0,0.92,0.74,1.66,1.66,1.66c0.92,0,1.66-0.74,1.66-1.66v-1.66h26.56v1.66c0,0.92,0.74,1.66,1.66,1.66c0.92,0,1.66-0.74,1.66-1.66
		v-7.75C50.66,38.73,50.41,38.48,50.11,38.48z M44.02,21.33c0-0.31,0.25-0.55,0.55-0.55c0.31,0,0.55,0.25,0.55,0.55v0.55h-1.11
		V21.33z M22.99,21.33c0-0.31,0.25-0.55,0.55-0.55c0.31,0,0.55,0.25,0.55,0.55v0.55h-1.11V21.33z M21.33,24.65
		c0-0.92,0.74-1.66,1.66-1.66h22.14c0.92,0,1.66,0.74,1.66,1.66v6.64h-1.41c0.2-0.33,0.31-0.72,0.31-1.11v-2.21
		c0-1.22-0.99-2.21-2.21-2.21h-6.09c-1.22,0-2.21,0.99-2.21,2.21v2.21c0,0.39,0.11,0.77,0.31,1.11h-2.83
		c0.2-0.33,0.31-0.72,0.31-1.11v-2.21c0-1.22-0.99-2.21-2.21-2.21h-6.09c-1.22,0-2.21,0.99-2.21,2.21v2.21
		c0,0.39,0.11,0.77,0.31,1.11h-1.41V24.65z M44.57,27.97v2.21c0,0.61-0.5,1.11-1.11,1.11h-6.09c-0.61,0-1.11-0.5-1.11-1.11v-2.21
		c0-0.61,0.5-1.11,1.11-1.11h6.09C44.08,26.86,44.57,27.36,44.57,27.97z M31.84,27.97v2.21c0,0.61-0.5,1.11-1.11,1.11h-6.09
		c-0.61,0-1.11-0.5-1.11-1.11v-2.21c0-0.61,0.5-1.11,1.11-1.11h6.09C31.35,26.86,31.84,27.36,31.84,27.97z M19.67,34.06
		c0-0.92,0.74-1.66,1.66-1.66h25.46c0.92,0,1.66,0.74,1.66,1.66v4.43H19.67V34.06z M19.67,46.79c0,0.31-0.25,0.55-0.55,0.55
		c-0.31,0-0.55-0.25-0.55-0.55v-1.66h1.11V46.79z M49.55,46.79c0,0.31-0.25,0.55-0.55,0.55c-0.31,0-0.55-0.25-0.55-0.55v-1.66h1.11
		V46.79z M49.55,44.02H18.56v-1.11h6.09c0.31,0,0.55-0.25,0.55-0.55c0-0.31-0.25-0.55-0.55-0.55h-6.09v-2.21h30.99V44.02z"/>
	<path d="M27.97,41.8h-1.11c-0.31,0-0.55,0.25-0.55,0.55c0,0.31,0.25,0.55,0.55,0.55h1.11c0.31,0,0.55-0.25,0.55-0.55
		C28.52,42.05,28.28,41.8,27.97,41.8z"/>
	<path d="M31.29,41.8h-1.11c-0.31,0-0.55,0.25-0.55,0.55c0,0.31,0.25,0.55,0.55,0.55h1.11c0.31,0,0.55-0.25,0.55-0.55
		C31.84,42.05,31.6,41.8,31.29,41.8z"/>
	<path d="M45.68,33.5h-1.11c-0.31,0-0.55,0.25-0.55,0.55c0,0.31,0.25,0.55,0.55,0.55h1.11c0.31,0,0.55,0.25,0.55,0.55v1.11
		c0,0.31,0.25,0.55,0.55,0.55c0.31,0,0.55-0.25,0.55-0.55v-1.11C47.34,34.25,46.6,33.5,45.68,33.5z"/>
</g>
<path d="M34.06,68.11C15.28,68.11,0,52.84,0,34.06S15.28,0,34.06,0s34.06,15.28,34.06,34.06S52.84,68.11,34.06,68.11z M34.06,2
	C16.38,2,2,16.38,2,34.06c0,17.68,14.38,32.06,32.06,32.06s32.06-14.38,32.06-32.06C66.11,16.38,51.73,2,34.06,2z"/>
</svg>
