<?xml version="1.0" encoding="utf-8"?>
<!-- Generator: Adobe Illustrator 24.0.2, SVG Export Plug-In . SVG Version: 6.00 Build 0)  -->
<svg version="1.1" id="Layer_1" xmlns="http://www.w3.org/2000/svg" xmlns:xlink="http://www.w3.org/1999/xlink" x="0px" y="0px"
	 viewBox="0 0 68.1 68.1" style="enable-background:new 0 0 68.1 68.1;" xml:space="preserve">
<g>
	<path d="M40.9,26.6c0.1,0.1,0.3,0.2,0.5,0.2c0.2,0,0.4-0.1,0.5-0.2l3.7-3.7c0.3-0.3,0.3-0.7,0-1c-0.3-0.3-0.7-0.3-1,0l-3.7,3.7
		C40.7,25.9,40.7,26.3,40.9,26.6z"/>
	<path d="M48.5,36.1l-3.7-3.7c-0.3-0.3-0.7-0.3-1,0c-0.3,0.3-0.3,0.7,0,1l3.7,3.7c0.1,0.1,0.3,0.2,0.5,0.2c0.2,0,0.4-0.1,0.5-0.2
		C48.8,36.9,48.8,36.4,48.5,36.1z"/>
	<path d="M26.1,26.6c0.1,0.1,0.3,0.2,0.5,0.2c0.2,0,0.4-0.1,0.5-0.2c0.3-0.3,0.3-0.7,0-1l-3.7-3.7c-0.3-0.3-0.7-0.3-1,0
		c-0.3,0.3-0.3,0.7,0,1L26.1,26.6z"/>
	<path d="M24.3,32.4c-0.3-0.3-0.7-0.3-1,0l-3.7,3.7c-0.3,0.3-0.3,0.7,0,1c0.1,0.1,0.3,0.2,0.5,0.2c0.2,0,0.4-0.1,0.5-0.2l3.7-3.7
		C24.6,33.1,24.6,32.7,24.3,32.4z"/>
	<path d="M38.8,30c0.2-0.3,0.4-0.6,0.5-1.1c0.2-0.8-0.1-1.7-0.6-2.2c0.6-1.4,1.9-4.4,2.4-5.4c0.1-0.3,0.1-0.6-0.2-0.8
		c-0.9-0.9-1.9-1.6-3-2.1l0.2-1.1c0.1-0.3-0.1-0.6-0.3-0.8c-1.2-0.7-2.5-1.1-3.9-1.1c-1.4,0-2.7,0.4-3.9,1.1
		c-0.3,0.2-0.4,0.5-0.3,0.8l0.2,1.1c-1.1,0.5-2.1,1.2-3,2.1c-0.2,0.2-0.3,0.5-0.2,0.8c0.4,1,1.8,4.1,2.4,5.4
		c-0.5,0.5-0.7,1.3-0.6,2.2c0.1,0.4,0.3,0.8,0.5,1.1l-6.6,9.6c-1.7,2.5-2,5.2-0.8,7.6c0.7,1.5,2,2.8,3.7,3.7c1.7,0.9,3.8,1.5,6,1.6
		c0.8,0,1.6,0.1,2.5,0.1s1.6,0,2.5-0.1c2.2-0.1,4.3-0.7,6-1.6c1.7-0.9,3-2.2,3.7-3.7c1.2-2.4,0.9-5.1-0.8-7.6L38.8,30z M37.1,28.6
		c-0.9-0.4-1.9-0.6-2.9-0.6c-1,0-2,0.1-2.9,0.4c-0.3,0.1-0.5,0.2-0.8,0.3c-0.1,0.1-0.3,0.1-0.4,0.2c0,0,0,0-0.1,0c0,0,0,0,0-0.1
		c0-0.1,0-0.1-0.1-0.2c-0.1-0.4,0.1-0.8,0.1-0.9c0.5-0.2,0.9-0.5,1.4-0.6c1.5-0.5,2.9-0.5,4.4-0.1c0.6,0.2,1.1,0.4,1.6,0.7
		c0.1,0.1,0.2,0.4,0.1,0.9c0,0.1,0,0.2-0.1,0.2c0,0,0,0.1-0.1,0c0,0-0.1,0-0.1-0.1C37.4,28.8,37.3,28.7,37.1,28.6z M39.6,21.2
		c-0.5,1.1-1.9,4.4-2.1,4.9c0,0,0,0,0,0c-0.4-0.2-0.7-0.3-1.1-0.4l1.3-5.8C38.3,20.3,39,20.7,39.6,21.2z M34,17
		c0.9,0,1.9,0.2,2.7,0.6l-0.3,1.1c0,0,0,0,0,0l-1.5,6.7c-0.6-0.1-1.2-0.1-1.8,0l-1.8-7.8C32.1,17.2,33,17,34,17z M30.3,19.9l1.3,5.8
		c-0.4,0.1-0.8,0.2-1.2,0.4c0,0,0,0,0,0c-0.2-0.5-1.6-3.8-2.1-4.9C29,20.7,29.6,20.2,30.3,19.9z M44.9,46.5
		c-1.3,2.6-4.5,4.3-8.5,4.5c-0.8,0-1.6,0.1-2.4,0.1c-0.8,0-1.6,0-2.4-0.1c-4-0.2-7.3-2-8.5-4.5c-0.9-1.9-0.7-4.1,0.7-6.1l7-10.2
		c0.8-0.4,1.6-0.7,2.4-0.8c0.9-0.1,1.8,0,2.7,0.2c0.5,0.1,0.9,0.3,1.4,0.6l7,10.2C45.5,42.5,45.8,44.7,44.9,46.5z"/>
	<path d="M44.3,29.5c0,0.4,0.3,0.7,0.7,0.7h2.4c0.4,0,0.7-0.3,0.7-0.7c0-0.4-0.3-0.7-0.7-0.7H45C44.6,28.8,44.3,29.1,44.3,29.5z"/>
	<path d="M42.7,29.1c-0.2-0.3-0.5-0.4-0.8-0.3c-0.3,0.1-0.5,0.4-0.5,0.7c0,0.3,0.2,0.6,0.4,0.7c0.3,0.1,0.6,0.1,0.8-0.2
		C42.8,29.8,42.9,29.4,42.7,29.1z"/>
	<path d="M20.7,30.2h2.4c0.4,0,0.7-0.3,0.7-0.7c0-0.4-0.3-0.7-0.7-0.7h-2.4c-0.4,0-0.7,0.3-0.7,0.7C20,29.9,20.3,30.2,20.7,30.2z"/>
	<path d="M26.6,29.1c-0.2-0.3-0.5-0.4-0.8-0.3c-0.3,0.1-0.5,0.3-0.5,0.6c0,0.3,0.2,0.6,0.4,0.7c0.3,0.1,0.6,0.1,0.8-0.2
		C26.8,29.8,26.8,29.4,26.6,29.1z"/>
	<g>
		<path d="M31,41.4h-0.6v2.7c0,0.4-0.1,0.6-0.2,0.8c-0.2,0.2-0.4,0.3-0.6,0.3c-0.3,0-0.5-0.1-0.6-0.3c-0.1-0.2-0.2-0.4-0.2-0.8v-6.4
			c0-0.4,0.1-0.6,0.2-0.8c0.2-0.2,0.4-0.2,0.8-0.2h2.8c0.4,0,0.7,0,1,0c0.3,0,0.5,0.1,0.7,0.2c0.3,0.1,0.5,0.3,0.7,0.5
			c0.2,0.2,0.4,0.4,0.5,0.7c0.1,0.3,0.2,0.6,0.2,0.9c0,0.6-0.2,1.1-0.5,1.5c-0.4,0.4-0.9,0.6-1.6,0.8c0.3,0.2,0.6,0.4,0.9,0.7
			c0.3,0.3,0.5,0.6,0.7,1c0.2,0.4,0.4,0.7,0.5,1c0.1,0.3,0.2,0.5,0.2,0.6c0,0.1,0,0.2-0.1,0.3c-0.1,0.1-0.2,0.2-0.3,0.3
			c-0.1,0.1-0.3,0.1-0.4,0.1c-0.2,0-0.4,0-0.5-0.1s-0.2-0.2-0.3-0.3c-0.1-0.1-0.2-0.3-0.4-0.6L33,43c-0.2-0.4-0.5-0.7-0.7-0.9
			c-0.2-0.2-0.4-0.4-0.6-0.4C31.5,41.5,31.3,41.4,31,41.4z M32,37.9h-1.6v2.3h1.5c0.4,0,0.8,0,1-0.1c0.3-0.1,0.5-0.2,0.6-0.4
			c0.1-0.2,0.2-0.4,0.2-0.7c0-0.2-0.1-0.4-0.2-0.6c-0.1-0.2-0.3-0.3-0.5-0.4C32.9,38,32.5,37.9,32,37.9z"/>
		<path d="M37.4,40.5v0.2c0.3-0.4,0.6-0.6,0.9-0.8c0.3-0.2,0.7-0.3,1.1-0.3c0.5,0,0.9,0.1,1.3,0.4c0.4,0.2,0.7,0.6,1,1.1
			c0.2,0.5,0.4,1,0.4,1.7c0,0.5-0.1,0.9-0.2,1.3c-0.1,0.4-0.3,0.7-0.6,1c-0.2,0.3-0.5,0.5-0.8,0.6c-0.3,0.1-0.7,0.2-1,0.2
			c-0.4,0-0.8-0.1-1.1-0.3c-0.3-0.2-0.6-0.4-0.9-0.8v2.3c0,0.7-0.2,1-0.7,1c-0.3,0-0.5-0.1-0.6-0.3c-0.1-0.2-0.1-0.4-0.1-0.8v-6.7
			c0-0.3,0.1-0.5,0.2-0.7c0.1-0.1,0.3-0.2,0.5-0.2c0.2,0,0.4,0.1,0.5,0.2C37.3,40,37.4,40.2,37.4,40.5z M40.9,42.8
			c0-0.4-0.1-0.8-0.2-1.1c-0.1-0.3-0.3-0.5-0.6-0.7c-0.3-0.2-0.5-0.2-0.9-0.2c-0.5,0-0.9,0.2-1.3,0.5c-0.3,0.3-0.5,0.8-0.5,1.5
			c0,0.6,0.2,1.1,0.5,1.4c0.3,0.3,0.8,0.5,1.3,0.5c0.3,0,0.6-0.1,0.8-0.2c0.3-0.2,0.5-0.4,0.6-0.7C40.9,43.6,40.9,43.2,40.9,42.8z"
			/>
	</g>
</g>
<path d="M0,34.1C0,15.3,15.3,0,34.1,0s34.1,15.3,34.1,34.1S52.8,68.1,34.1,68.1S0,52.8,0,34.1z M66.1,34.1C66.1,16.4,51.7,2,34.1,2
	C16.4,2,2,16.4,2,34.1s14.4,32.1,32.1,32.1C51.7,66.1,66.1,51.7,66.1,34.1z"/>
</svg>
