<?xml version="1.0" encoding="utf-8"?>
<!-- Generator: Adobe Illustrator 24.0.2, SVG Export Plug-In . SVG Version: 6.00 Build 0)  -->
<svg version="1.1" id="Layer_1" xmlns="http://www.w3.org/2000/svg" xmlns:xlink="http://www.w3.org/1999/xlink" x="0px" y="0px"
	 viewBox="0 0 68.11 68.11" style="enable-background:new 0 0 68.11 68.11;" xml:space="preserve">
<style>path{fill:#fff}</style>
<path d="M48.75,25.11h-4.56c0.75-0.81,1.2-1.89,1.2-3.07c0,0,0-0.18,0-0.23c-0.05-1.46-0.85-2.76-2.13-3.48
	c-1.31-0.74-2.87-0.74-4.18,0l-2.08,1.17c-1.3,0.73-2.32,1.84-2.95,3.14c-0.63-1.3-1.65-2.41-2.95-3.14l-2.08-1.17
	c-1.3-0.74-2.86-0.74-4.18,0c-1.28,0.72-2.08,2.02-2.13,3.48c0,0.05,0,0.23,0,0.23c0,1.18,0.46,2.26,1.2,3.07h-4.56
	c-0.97,0-1.76,0.79-1.76,1.76v4.17c0,0.97,0.79,1.76,1.76,1.76h0.8v15.79c0,0.97,0.79,1.76,1.76,1.76h24.27
	c0.97,0,1.76-0.79,1.76-1.76V32.79h0.8c0.97,0,1.76-0.79,1.76-1.76v-4.17C50.51,25.9,49.72,25.11,48.75,25.11L48.75,25.11z
	 M37.73,20.77l2.08-1.17c0.86-0.48,1.88-0.48,2.74,0c0.83,0.47,1.35,1.31,1.38,2.26c0,0.04,0,0.18,0,0.18
	c0,1.69-1.38,3.07-3.07,3.07h-6.03C35.05,23.3,36.12,21.68,37.73,20.77L37.73,20.77z M24.19,21.86c0.03-0.94,0.55-1.79,1.38-2.26
	c0.43-0.24,0.9-0.36,1.37-0.36c0.47,0,0.94,0.12,1.37,0.36l2.08,1.17c1.61,0.91,2.68,2.53,2.9,4.34h-6.03
	c-1.69,0-3.07-1.38-3.07-3.07C24.19,22.04,24.19,21.9,24.19,21.86L24.19,21.86z M30.77,35.01h-3.01c-0.4,0-0.73,0.33-0.73,0.73
	c0,0.4,0.33,0.73,0.73,0.73h3.01v12.4h-8.85c-0.16,0-0.29-0.13-0.29-0.29V32.79h9.14V35.01z M30.77,31.33H19.36
	c-0.16,0-0.29-0.13-0.29-0.29v-4.17c0-0.16,0.13-0.29,0.29-0.29h11.41V31.33z M35.88,48.88h-3.66v-22.3h3.66V48.88z M46.49,48.58
	c0,0.16-0.13,0.29-0.29,0.29h-8.85v-12.4h2.79c0.4,0,0.73-0.33,0.73-0.73c0-0.4-0.33-0.73-0.73-0.73h-2.79v-2.22h9.14V48.58z
	 M49.05,31.03c0,0.16-0.13,0.29-0.29,0.29H37.35v-4.75h11.41c0.16,0,0.29,0.13,0.29,0.29V31.03z M49.05,31.03"/>
<path d="M34.02,34.79h0.07c0.4,0,0.73-0.33,0.73-0.73s-0.33-0.73-0.73-0.73h-0.07c-0.4,0-0.73,0.33-0.73,0.73
	S33.62,34.79,34.02,34.79L34.02,34.79z M34.02,34.79"/>
<path d="M34.02,34.79h0.07c0.4,0,0.73-0.33,0.73-0.73s-0.33-0.73-0.73-0.73h-0.07c-0.4,0-0.73,0.33-0.73,0.73
	S33.62,34.79,34.02,34.79L34.02,34.79z M34.02,34.79"/>
<path d="M34.06,68.11C15.28,68.11,0,52.84,0,34.06S15.28,0,34.06,0s34.06,15.28,34.06,34.06S52.84,68.11,34.06,68.11z M34.06,2
	C16.38,2,2,16.38,2,34.06c0,17.68,14.38,32.06,32.06,32.06s32.06-14.38,32.06-32.06C66.11,16.38,51.73,2,34.06,2z"/>
</svg>
