<?xml version="1.0" encoding="utf-8"?>
<!-- Generator: Adobe Illustrator 24.0.2, SVG Export Plug-In . SVG Version: 6.00 Build 0)  -->
<svg version="1.1" id="Layer_1" xmlns="http://www.w3.org/2000/svg" xmlns:xlink="http://www.w3.org/1999/xlink" x="0px" y="0px"
	 viewBox="0 0 68.11 68.11" style="enable-background:new 0 0 68.11 68.11;" xml:space="preserve">
<style>path{fill:#fff}</style>
<g>
	<g>
		<g>
			<path d="M53.85,44.18H45.3c0.09-0.25,0.14-0.52,0.14-0.8v-0.8h3.97c2.87,0,5.21-2.34,5.21-5.21c0-1.39-0.54-2.7-1.53-3.68
				l-0.52-0.52l-4.5-4.5c0,0,0,0,0,0l-2.29-2.29c-2.61-2.61-6.08-4.05-9.78-4.05H14.26c-0.44,0-0.8,0.36-0.8,0.8
				c0,0.44,0.36,0.8,0.8,0.8H36c3.26,0,6.33,1.27,8.64,3.58l0.92,0.92H36.3c-1.68,0-3.05,1.37-3.05,3.05c0,1.68,1.37,3.05,3.05,3.05
				h15.37l0.28,0.28C52.63,35.5,53,36.41,53,37.37c0,1.99-1.62,3.6-3.6,3.6h-4.77h-3.21H21.86h-3.21h-4.38c-0.44,0-0.8,0.36-0.8,0.8
				c0,0.44,0.36,0.8,0.8,0.8h3.58v0.8c0,0.28,0.05,0.55,0.14,0.8h-3.67c-0.44,0-0.8,0.36-0.8,0.8c0,0.44,0.36,0.8,0.8,0.8h13.5
				c0.44,0,0.8-0.36,0.8-0.8c0-0.44-0.36-0.8-0.8-0.8h-5.28c0.09-0.25,0.14-0.52,0.14-0.8v-0.8h17.95v0.8c0,0.28,0.05,0.55,0.14,0.8
				h-6.67c-0.44,0-0.8,0.36-0.8,0.8c0,0.44,0.36,0.8,0.8,0.8h19.77c0.44,0,0.8-0.36,0.8-0.8C54.65,44.54,54.29,44.18,53.85,44.18z
				 M36.3,32.93c-0.8,0-1.45-0.65-1.45-1.45c0-0.8,0.65-1.45,1.45-1.45h10.87l2.89,2.89L36.3,32.93L36.3,32.93z M21.06,43.38
				c0,0.44-0.36,0.8-0.8,0.8c-0.44,0-0.8-0.36-0.8-0.8v-0.8h1.61V43.38z M43.83,43.38c0,0.44-0.36,0.8-0.8,0.8
				c-0.44,0-0.8-0.36-0.8-0.8v-0.8h1.61V43.38L43.83,43.38z"/>
		</g>
	</g>
	<g>
		<g>
			<path d="M31.51,44.42c-0.15-0.15-0.36-0.24-0.57-0.24c-0.21,0-0.42,0.09-0.57,0.24c-0.15,0.15-0.24,0.36-0.24,0.57
				c0,0.21,0.09,0.42,0.24,0.57c0.15,0.15,0.36,0.24,0.57,0.24c0.21,0,0.42-0.09,0.57-0.24c0.15-0.15,0.24-0.36,0.24-0.57
				S31.66,44.57,31.51,44.42z"/>
		</g>
	</g>
	<g>
		<g>
			<path d="M26.8,28.43h-9.47c-0.44,0-0.8,0.36-0.8,0.8c0,0.44,0.36,0.8,0.8,0.8h9.47c0.8,0,1.45,0.65,1.45,1.45
				c0,0.8-0.65,1.45-1.45,1.45H14.26c-0.44,0-0.8,0.36-0.8,0.8c0,0.44,0.36,0.8,0.8,0.8H26.8c1.68,0,3.05-1.37,3.05-3.05
				S28.49,28.43,26.8,28.43z"/>
		</g>
	</g>
	<g>
		<g>
			<path d="M14.83,28.67c-0.15-0.15-0.36-0.24-0.57-0.24c-0.21,0-0.42,0.09-0.57,0.24c-0.15,0.15-0.24,0.36-0.24,0.57
				c0,0.21,0.09,0.42,0.24,0.57c0.15,0.15,0.36,0.24,0.57,0.24c0.21,0,0.42-0.09,0.57-0.24c0.15-0.15,0.24-0.36,0.24-0.57
				C15.07,29.02,14.98,28.82,14.83,28.67z"/>
		</g>
	</g>
</g>
<path d="M34.06,68.11C15.28,68.11,0,52.84,0,34.06S15.28,0,34.06,0s34.06,15.28,34.06,34.06S52.84,68.11,34.06,68.11z M34.06,2
	C16.38,2,2,16.38,2,34.06c0,17.68,14.38,32.06,32.06,32.06s32.06-14.38,32.06-32.06C66.11,16.38,51.73,2,34.06,2z"/>
</svg>
