<?xml version="1.0" encoding="utf-8"?>
<!-- Generator: Adobe Illustrator 24.0.2, SVG Export Plug-In . SVG Version: 6.00 Build 0)  -->
<svg version="1.1" id="Layer_1" xmlns="http://www.w3.org/2000/svg" xmlns:xlink="http://www.w3.org/1999/xlink" x="0px" y="0px"
	 viewBox="0 0 68.1 68.1" style="enable-background:new 0 0 68.1 68.1;" xml:space="preserve">
<style>path{fill:#fff}</style>
<g>
	<g>
		<g>
			<path d="M51.6,35.3l-2.1-1.8v-2.3c0-1.2-0.9-2.1-2.1-2.1c-0.8,0-1.5,0.5-1.9,1.1L43.9,29v-2.3c0-1.2-0.9-2.1-2.1-2.1
				c-0.8,0-1.5,0.4-1.8,1.1l-1.6-1.4V24c0-3-1.5-5.8-3.9-7.6c-0.2-0.2-0.6-0.2-0.8,0c-2.4,1.7-3.9,4.6-3.9,7.6v0.4l-1.6,1.4
				c-0.4-0.7-1-1.1-1.8-1.1c-1.2,0-2.1,0.9-2.1,2.1V29l-1.6,1.3c-0.3-0.7-1-1.1-1.9-1.1c-1.2,0-2.1,0.9-2.1,2.1v2.3l-2.1,1.8
				c-0.2,0.1-0.3,0.3-0.3,0.5v4.2c0,0.2,0.1,0.4,0.3,0.6c0.1,0.1,0.3,0.1,0.4,0.1c0.1,0,0.1,0,0.2,0l4-1.3c0.4-0.1,0.6-0.5,0.5-0.9
				c-0.1-0.4-0.5-0.6-0.9-0.5l-3.1,1v-3l12.1-10v9.2l-3.9,1.2c-0.4,0.1-0.6,0.5-0.5,0.9c0.1,0.3,0.4,0.5,0.7,0.5c0.1,0,0.1,0,0.2,0
				l3.5-1.1v5.9L24.4,48c-0.1,0.1-0.2,0.3-0.2,0.5v2.7c0,0.2,0.1,0.5,0.3,0.6c0.1,0.1,0.2,0.1,0.4,0.1c0.1,0,0.2,0,0.3-0.1l6.1-3
				c0.6,1.1,1.4,2,2.3,2.9c0.1,0.1,0.3,0.2,0.5,0.2c0.2,0,0.3-0.1,0.5-0.2c0.9-0.8,1.7-1.8,2.3-2.9l6.1,3c0.1,0,0.2,0.1,0.3,0.1
				c0.1,0,0.3,0,0.4-0.1c0.2-0.1,0.3-0.4,0.3-0.6v-2.7c0-0.2-0.1-0.4-0.2-0.5l-5.3-5.3v-5.9l12.6,4c0.1,0,0.1,0,0.2,0
				c0.1,0,0.3,0,0.4-0.1c0.2-0.1,0.3-0.3,0.3-0.6v-4.2C51.9,35.6,51.8,35.4,51.6,35.3L51.6,35.3z M20,32.4v-1.1
				c0-0.4,0.3-0.7,0.7-0.7c0.4,0,0.7,0.3,0.7,0.7L20,32.4z M25.6,27.8v-1.1c0-0.4,0.3-0.7,0.7-0.7c0.4,0,0.7,0.3,0.7,0.7L25.6,27.8z
				 M25.6,50v-1.3l4.2-4.2c0.1,1,0.4,2.1,0.8,3L25.6,50z M37,35.8C37,35.8,37,35.8,37,35.8v7c0,2.4-0.8,4.7-2.2,6.6v-6.7
				c0-0.4-0.3-0.7-0.7-0.7c-0.4,0-0.7,0.3-0.7,0.7v6.7c-1.4-1.9-2.2-4.2-2.2-6.6v-6.9c0,0,0,0,0,0V24c0-2.4,1.1-4.7,2.9-6.2
				c1.8,1.5,2.9,3.8,2.9,6.2V35.8z M42.5,48.7V50l-5.1-2.5c0.4-1,0.7-2,0.8-3L42.5,48.7z M47.4,30.6c0.4,0,0.7,0.3,0.7,0.7v1.1
				l-1.4-1.1C46.7,30.9,47,30.6,47.4,30.6L47.4,30.6z M41.8,26c0.4,0,0.7,0.3,0.7,0.7v1.1l-1.4-1.1C41.2,26.3,41.5,26,41.8,26
				L41.8,26z M50.5,39.1l-12.1-3.8v-9.2l12.1,10V39.1z M50.5,39.1"/>
			<path d="M24.2,37.5c-0.1-0.1-0.3-0.2-0.5-0.2c-0.2,0-0.4,0.1-0.5,0.2C23.1,37.6,23,37.8,23,38c0,0.2,0.1,0.4,0.2,0.5
				c0.1,0.1,0.3,0.2,0.5,0.2c0.2,0,0.4-0.1,0.5-0.2c0.1-0.1,0.2-0.3,0.2-0.5C24.4,37.8,24.3,37.6,24.2,37.5L24.2,37.5z M24.2,37.5"
				/>
			<path d="M34.5,39.6c-0.1-0.1-0.3-0.2-0.5-0.2c-0.2,0-0.4,0.1-0.5,0.2c-0.1,0.1-0.2,0.3-0.2,0.5c0,0.2,0.1,0.4,0.2,0.5
				c0.1,0.1,0.3,0.2,0.5,0.2c0.2,0,0.4-0.1,0.5-0.2c0.1-0.1,0.2-0.3,0.2-0.5C34.8,39.9,34.7,39.7,34.5,39.6L34.5,39.6z M34.5,39.6"
				/>
		</g>
	</g>
	<path d="M34.1,68.1C15.3,68.1,0,52.8,0,34.1S15.3,0,34.1,0s34.1,15.3,34.1,34.1S52.8,68.1,34.1,68.1z M34.1,2C16.4,2,2,16.4,2,34.1
		c0,17.7,14.4,32.1,32.1,32.1s32.1-14.4,32.1-32.1C66.1,16.4,51.7,2,34.1,2z"/>
</g>
</svg>
