<?xml version="1.0" encoding="utf-8"?>
<!-- Generator: Adobe Illustrator 24.0.2, SVG Export Plug-In . SVG Version: 6.00 Build 0)  -->
<svg version="1.1" id="Layer_1" xmlns="http://www.w3.org/2000/svg" xmlns:xlink="http://www.w3.org/1999/xlink" x="0px" y="0px"
	 viewBox="0 0 68.11 68.11" style="enable-background:new 0 0 68.11 68.11;" xml:space="preserve">
<style>path{fill:#fff}</style>
<g>
	<path d="M34.06,68.11C15.28,68.11,0,52.84,0,34.06S15.28,0,34.06,0s34.06,15.28,34.06,34.06S52.84,68.11,34.06,68.11z M34.06,2
		C16.38,2,2,16.38,2,34.06c0,17.68,14.38,32.06,32.06,32.06c17.68,0,32.06-14.38,32.06-32.06C66.11,16.38,51.73,2,34.06,2z"/>
	<g>
		<g>
			<g>
				<path d="M58.36,40.92c-2.53-1.79-5.64-4.68-8.77-8.09c1.18-0.65,2.22-1.54,3.04-2.61c0.25-0.32,0.18-0.78-0.14-1.03
					c-0.32-0.25-0.78-0.18-1.03,0.14c-0.77,1.01-1.76,1.82-2.89,2.38c-0.23-0.26-0.47-0.53-0.7-0.8c0,0,0-0.01-0.01-0.01
					c-1.5-1.73-2.99-3.55-4.38-5.4c-1.47-1.95-3.82-3.11-6.27-3.11h-0.13c0.4-1.59,1.29-3.04,2.54-4.14
					c1.48-1.3,3.39-2.01,5.36-2.01c4.49,0,8.15,3.66,8.15,8.15c0,0.91-0.15,1.8-0.44,2.64c-0.13,0.38,0.07,0.8,0.46,0.93
					c0.08,0.03,0.16,0.04,0.24,0.04c0.3,0,0.59-0.19,0.69-0.5c0.34-1,0.52-2.05,0.52-3.12c0-5.3-4.31-9.62-9.62-9.62
					c-2.33,0-4.58,0.84-6.33,2.37c-1.57,1.37-2.65,3.22-3.08,5.24H30.9c-2.46,0-4.8,1.16-6.27,3.11c-0.93,1.23-1.9,2.45-2.9,3.66
					c-0.47-0.04-0.97-0.05-1.47-0.05c-4.51,0-6.65,1.37-7.66,2.52c-0.37,0.43-0.46,1.02-0.22,1.54c0.24,0.52,0.74,0.85,1.32,0.85
					h3.73c-1.13,1.19-2.26,2.31-3.35,3.33c-0.3,0.28-0.31,0.74-0.04,1.04s0.74,0.31,1.04,0.04c1.47-1.37,3.01-2.93,4.54-4.61
					c0.02-0.02,0.04-0.04,0.06-0.07c0.42-0.46,0.84-0.93,1.26-1.4c0.04,0.03,0.08,0.07,0.11,0.1c1.27,1.27,3.33,1.27,4.6,0
					c0.7-0.7,1.83-0.7,2.53,0l0.87,0.87c0.38,0.38,0.89,0.59,1.43,0.59c0.54,0,1.05-0.21,1.43-0.59l0.87-0.87
					c0.7-0.7,1.83-0.7,2.53,0c0.35,0.35,0.77,0.61,1.24,0.78c0.38,0.13,0.8-0.07,0.93-0.46c0.13-0.38-0.07-0.8-0.46-0.93
					c-0.26-0.09-0.49-0.23-0.68-0.43c-1.27-1.27-3.33-1.27-4.6,0l-0.87,0.87c-0.1,0.1-0.24,0.16-0.39,0.16
					c-0.15,0-0.29-0.06-0.39-0.16l-0.87-0.87c-1.27-1.27-3.33-1.27-4.6,0c-0.7,0.7-1.83,0.7-2.53,0c-0.06-0.06-0.12-0.12-0.19-0.17
					c0.23-0.27,0.46-0.54,0.69-0.81c0.01-0.01,0.02-0.03,0.03-0.04c1.1-1.31,2.16-2.65,3.17-3.99c1.2-1.58,3.1-2.53,5.1-2.53h6.31
					c2,0,3.91,0.95,5.1,2.53c1.24,1.65,2.56,3.28,3.89,4.84c-0.06,0.06-0.13,0.11-0.19,0.17c-0.34,0.34-0.79,0.52-1.26,0.52
					c-0.48,0-0.93-0.19-1.26-0.52l-0.82-0.82c-0.4-0.4-0.92-0.62-1.49-0.62c-0.56,0-1.09,0.22-1.49,0.62l-0.72,0.72
					c-0.29,0.29-0.29,0.75,0,1.04c0.29,0.29,0.75,0.29,1.04,0l0.72-0.72c0.12-0.12,0.28-0.19,0.45-0.19c0.17,0,0.33,0.07,0.45,0.19
					l0.82,0.82c0.61,0.61,1.43,0.95,2.3,0.95c0.87,0,1.69-0.34,2.3-0.95c0.04-0.04,0.07-0.07,0.11-0.1
					c0.22,0.24,0.43,0.49,0.65,0.73c0.01,0.02,0.03,0.03,0.04,0.05c3.41,3.79,6.87,7.05,9.65,9.01c0.14,0.1,0.13,0.22,0.1,0.31
					c-0.02,0.07-0.09,0.2-0.27,0.2H10.77c-0.18,0-0.25-0.12-0.27-0.2c-0.03-0.09-0.03-0.21,0.1-0.31c0.7-0.5,1.45-1.08,2.23-1.73
					c0.31-0.26,0.35-0.72,0.09-1.03c-0.26-0.31-0.72-0.35-1.03-0.09c-0.75,0.63-1.47,1.19-2.14,1.66c-0.63,0.45-0.89,1.21-0.65,1.95
					c0.24,0.74,0.89,1.22,1.67,1.22h46.57c0.78,0,1.43-0.48,1.67-1.22C59.24,42.14,58.99,41.37,58.36,40.92z M18.79,32.54h-5.04
					c1.54-1.71,4.74-1.97,6.51-1.97c0.09,0,0.18,0,0.27,0C19.95,31.24,19.37,31.9,18.79,32.54z"/>
				<path d="M47.16,40.2c0.18,0,0.35-0.06,0.49-0.19c0.3-0.27,0.32-0.74,0.05-1.04c-0.81-0.89-1.54-1.99-1.96-2.95
					c-0.16-0.37-0.59-0.54-0.97-0.38c-0.37,0.16-0.54,0.6-0.38,0.97c0.48,1.1,1.31,2.35,2.22,3.35
					C46.77,40.12,46.96,40.2,47.16,40.2z"/>
				<path d="M21.68,40.47c0.16,0,0.32-0.05,0.46-0.16c0.95-0.76,2.78-2.62,3.62-4.36c0.18-0.37,0.02-0.8-0.34-0.98
					c-0.37-0.18-0.8-0.02-0.98,0.34c-0.68,1.42-2.32,3.14-3.21,3.85c-0.32,0.25-0.37,0.71-0.11,1.03
					C21.25,40.38,21.47,40.47,21.68,40.47z"/>
				<path d="M39.64,41.78c0.13,0,0.27-0.04,0.39-0.11c0.34-0.22,0.44-0.67,0.22-1.01c-0.37-0.57-0.75-1.88-0.78-2.11
					c-0.04-0.4-0.4-0.69-0.8-0.65c-0.4,0.04-0.7,0.4-0.66,0.8c0.04,0.42,0.5,1.97,1,2.75C39.16,41.66,39.39,41.78,39.64,41.78z"/>
			</g>
		</g>
	</g>
</g>
</svg>
