<?xml version="1.0" encoding="utf-8"?>
<!-- Generator: Adobe Illustrator 24.0.2, SVG Export Plug-In . SVG Version: 6.00 Build 0)  -->
<svg version="1.1" id="Layer_1" xmlns="http://www.w3.org/2000/svg" xmlns:xlink="http://www.w3.org/1999/xlink" x="0px" y="0px"
	 viewBox="0 0 68.1 68.1" style="enable-background:new 0 0 68.1 68.1;" xml:space="preserve">
<style>path{fill:#fff}</style>
<g>
	<g>
		<path d="M42.6,24.7h-2.7v-4.8c0.2-0.1,0.2-0.4,0.2-0.6v-1.6c0-1.4-1.2-2.6-2.6-2.6h-7c-1.4,0-2.6,1.2-2.6,2.6v1.6
			c0,0.2,0.1,0.4,0.2,0.6v4.8h-2.7c-1.6,0-2.9,1.3-2.9,2.9V48c0,1.3,0.8,2.4,1.9,2.8v0.7c0,0.9,0.7,1.6,1.6,1.6h0.7
			c0.9,0,1.6-0.7,1.6-1.6v-0.5h11.3v0.5c0,0.9,0.7,1.6,1.6,1.6H42c0.9,0,1.6-0.7,1.6-1.6v-0.7c1.1-0.4,1.9-1.5,1.9-2.8V27.6
			C45.5,26,44.2,24.7,42.6,24.7L42.6,24.7z M38,24.7v-4.6h0.8v4.6H38z M31.2,19.8c0.2-0.1,0.2-0.4,0.2-0.6v-0.7h5.2v0.7
			c0,0.2,0.1,0.4,0.2,0.6v4.8h-5.7V19.8z M29.1,17.6c0-0.8,0.7-1.5,1.5-1.5h7c0.8,0,1.5,0.7,1.5,1.5V19h-1.3v-0.7
			c0-0.5-0.4-0.8-0.8-0.8h-5.7c-0.5,0-0.8,0.4-0.8,0.8V19h-1.3V17.6z M29.3,20.1h0.8v4.6h-0.8V20.1z M27.3,51.5
			c0,0.3-0.2,0.5-0.5,0.5h-0.7c-0.3,0-0.5-0.2-0.5-0.5v-0.5h1.7V51.5z M42,52h-0.7c-0.3,0-0.5-0.2-0.5-0.5v-0.5h1.7v0.5
			C42.5,51.7,42.2,52,42,52L42,52z M44.4,48c0,1-0.8,1.8-1.8,1.8H25.5c-1,0-1.8-0.8-1.8-1.8V27.6c0-1,0.8-1.8,1.8-1.8h17.1
			c1,0,1.8,0.8,1.8,1.8V48z M44.4,48"/>
		<path d="M27.8,28.3c-1,0-1.9,0.8-1.9,1.9V41c0,0.3,0.2,0.6,0.6,0.6c0.3,0,0.6-0.2,0.6-0.6V30.2c0-0.4,0.3-0.8,0.8-0.8
			c0.4,0,0.8,0.3,0.8,0.8V46c0,0.4-0.3,0.8-0.8,0.8c-0.4,0-0.8-0.3-0.8-0.8v-2.4c0-0.3-0.2-0.6-0.6-0.6c-0.3,0-0.6,0.2-0.6,0.6V46
			c0,1,0.8,1.9,1.9,1.9s1.9-0.8,1.9-1.9V30.2C29.7,29.2,28.9,28.3,27.8,28.3L27.8,28.3z M27.8,28.3"/>
		<path d="M34.1,28.3c-1,0-1.9,0.8-1.9,1.9V46c0,1,0.8,1.9,1.9,1.9c1,0,1.9-0.8,1.9-1.9V30.2C35.9,29.2,35.1,28.3,34.1,28.3
			L34.1,28.3z M34.8,46c0,0.4-0.3,0.8-0.8,0.8c-0.4,0-0.8-0.3-0.8-0.8V30.2c0-0.4,0.3-0.8,0.8-0.8c0.4,0,0.8,0.3,0.8,0.8V46z
			 M34.8,46"/>
		<path d="M40.3,28.3c-1,0-1.9,0.8-1.9,1.9v2.2c0,0.3,0.2,0.6,0.6,0.6c0.3,0,0.6-0.2,0.6-0.6v-2.2c0-0.4,0.3-0.8,0.8-0.8
			c0.4,0,0.8,0.3,0.8,0.8V46c0,0.4-0.3,0.8-0.8,0.8c-0.4,0-0.8-0.3-0.8-0.8V35c0-0.3-0.2-0.6-0.6-0.6c-0.3,0-0.6,0.2-0.6,0.6v11
			c0,1,0.8,1.9,1.9,1.9s1.9-0.8,1.9-1.9V30.2C42.2,29.2,41.3,28.3,40.3,28.3L40.3,28.3z M40.3,28.3"/>
	</g>
</g>
<path d="M0,34.1C0,15.3,15.3,0,34.1,0s34.1,15.3,34.1,34.1S52.8,68.1,34.1,68.1S0,52.8,0,34.1z M66.1,34.1C66.1,16.4,51.7,2,34.1,2
	C16.4,2,2,16.4,2,34.1s14.4,32.1,32.1,32.1C51.7,66.1,66.1,51.7,66.1,34.1z"/>
</svg>
