<?xml version="1.0" encoding="utf-8"?>
<!-- Generator: Adobe Illustrator 24.0.2, SVG Export Plug-In . SVG Version: 6.00 Build 0)  -->
<svg version="1.1" id="Layer_1" xmlns="http://www.w3.org/2000/svg" xmlns:xlink="http://www.w3.org/1999/xlink" x="0px" y="0px"
	 viewBox="0 0 68.11 68.11" style="enable-background:new 0 0 68.11 68.11;" xml:space="preserve">
<style>path{fill:#fff}</style>
<g>
	<path d="M32.89,33.21H22.67c-1.8,0-3.27-1.47-3.27-3.27v-6.96c0-1.8,1.47-3.27,3.27-3.27h10.23v5.21c0,0.41-0.34,0.75-0.75,0.75
		s-0.75-0.34-0.75-0.75v-3.71h-8.73c-0.98,0-1.77,0.79-1.77,1.77v6.96c0,0.98,0.79,1.77,1.77,1.77h8.73v-2.49
		c0-0.41,0.34-0.75,0.75-0.75s0.75,0.34,0.75,0.75V33.21z"/>
	<path d="M45.9,33.21H35.22v-13.5h10.33c1.74,0,3.16,1.42,3.16,3.16v7.52C48.72,31.94,47.45,33.21,45.9,33.21z M36.72,31.71h9.18
		c0.73,0,1.32-0.59,1.32-1.32v-7.52c0-0.92-0.75-1.66-1.66-1.66h-8.83V31.71z"/>
	<path d="M32.89,48.4H22.57c-1.75,0-3.17-1.42-3.17-3.17v-7.16c0-1.75,1.42-3.17,3.17-3.17h10.33V48.4z M22.57,36.41
		c-0.92,0-1.67,0.75-1.67,1.67v7.16c0,0.92,0.75,1.67,1.67,1.67h8.83v-10.5H22.57z"/>
	<path d="M45.54,48.4H35.22v-5.33c0-0.41,0.34-0.75,0.75-0.75s0.75,0.34,0.75,0.75v3.83h8.82c0.92,0,1.68-0.75,1.68-1.68v-7.14
		c0-0.92-0.75-1.68-1.68-1.68h-8.82v2.99c0,0.41-0.34,0.75-0.75,0.75s-0.75-0.34-0.75-0.75v-4.49h10.32c1.75,0,3.18,1.42,3.18,3.18
		v7.14C48.72,46.98,47.29,48.4,45.54,48.4z"/>
</g>
<path d="M34.06,68.11C15.28,68.11,0,52.84,0,34.06S15.28,0,34.06,0s34.06,15.28,34.06,34.06S52.84,68.11,34.06,68.11z M34.06,2
	C16.38,2,2,16.38,2,34.06c0,17.68,14.38,32.06,32.06,32.06s32.06-14.38,32.06-32.06C66.11,16.38,51.73,2,34.06,2z"/>
</svg>
