<?xml version="1.0" encoding="utf-8"?>
<!-- Generator: Adobe Illustrator 24.0.2, SVG Export Plug-In . SVG Version: 6.00 Build 0)  -->
<svg version="1.1" id="Layer_1" xmlns="http://www.w3.org/2000/svg" xmlns:xlink="http://www.w3.org/1999/xlink" x="0px" y="0px"
	 viewBox="0 0 68.11 68.11" style="enable-background:new 0 0 68.11 68.11;" xml:space="preserve">
<style>path{fill:#fff}</style>
<g>
	<path d="M36.37,38.89c-1.14,0-2.07,0.93-2.07,2.07c0,1.14,0.93,2.07,2.07,2.07c1.14,0,2.07-0.93,2.07-2.07
		C38.45,39.82,37.52,38.89,36.37,38.89z M36.37,41.52c-0.31,0-0.56-0.25-0.56-0.56c0-0.31,0.25-0.56,0.56-0.56
		c0.31,0,0.56,0.25,0.56,0.56C36.94,41.27,36.68,41.52,36.37,41.52z"/>
	<path d="M29.77,23.84l-7.97,6.79c-0.32,0.27-0.36,0.75-0.09,1.06c0.15,0.18,0.36,0.27,0.57,0.27c0.17,0,0.35-0.06,0.49-0.18
		l7.97-6.79c0.32-0.27,0.36-0.75,0.08-1.06C30.56,23.61,30.09,23.57,29.77,23.84z"/>
	<path d="M31.42,22.77c0,0.4,0.33,0.73,0.73,0.73c0.4,0,0.73-0.33,0.73-0.73s-0.33-0.73-0.73-0.73
		C31.75,22.04,31.42,22.36,31.42,22.77z"/>
	<path d="M46.91,42.17c-0.42,0-0.75,0.34-0.75,0.75c0,0.42,0.34,0.75,0.75,0.75c0.42,0,0.75-0.34,0.75-0.75
		C47.67,42.51,47.33,42.17,46.91,42.17z"/>
	<path d="M52.73,33.03L34.55,17.28c-0.28-0.25-0.7-0.25-0.99,0L15.38,33.03c-0.24,0.21-0.32,0.54-0.21,0.83
		c0.11,0.3,0.39,0.49,0.71,0.49h4.57v15.9c0,0.42,0.34,0.75,0.75,0.75h25.71c0.42,0,0.75-0.34,0.75-0.75v-4.64h0
		c-0.01-0.41-0.34-0.73-0.75-0.73c-0.41,0-0.74,0.32-0.75,0.73h0v3.88h-5.6V36.63c0-3.59-2.92-6.5-6.5-6.5s-6.5,2.92-6.5,6.5v12.88
		h-5.6V33.6c0-0.42-0.34-0.75-0.75-0.75h-3.3l16.16-14l16.16,14h-3.3c-0.42,0-0.75,0.34-0.75,0.75v6.55h0.01
		c0,0.02-0.01,0.03-0.01,0.05c0,0.42,0.34,0.75,0.75,0.75c0.42,0,0.75-0.34,0.75-0.75c0-0.02,0-0.03-0.01-0.05h0.01v-5.8h4.57
		c0.31,0,0.6-0.2,0.71-0.49C53.05,33.57,52.97,33.24,52.73,33.03z M29.06,36.63c0-2.75,2.24-4.99,4.99-4.99
		c2.75,0,4.99,2.24,4.99,4.99v12.83h0h-9.99V36.63z"/>
</g>
<path d="M34.06,68.11C15.28,68.11,0,52.84,0,34.06S15.28,0,34.06,0s34.06,15.28,34.06,34.06S52.84,68.11,34.06,68.11z M34.06,2
	C16.38,2,2,16.38,2,34.06c0,17.68,14.38,32.06,32.06,32.06s32.06-14.38,32.06-32.06C66.11,16.38,51.73,2,34.06,2z"/>
</svg>
